<?xml version="1.0" encoding="iso-8859-1"?>
<!-- Uploaded to: SVG Repo, www.svgrepo.com, Generator: SVG Repo Mixer Tools -->
<svg fill="#000000" height="800px" width="800px" version="1.1" id="Layer_1" xmlns="http://www.w3.org/2000/svg" xmlns:xlink="http://www.w3.org/1999/xlink" 
	 viewBox="0 0 512 512" xml:space="preserve">
<g transform="translate(1 1)">
	<g>
		<g>
			<path d="M384.065,387.937c11.178-8.796,18.46-22.405,18.46-37.479c0-14.568-6.796-27.773-17.341-36.583
				c-0.544-19.55-7.251-38.424-18.239-50.197c-0.315-0.33-0.632-0.634-0.947-0.958c26.537-28.789,40.865-66.209,40.865-106.649
				c0-10.468-1.007-20.694-2.908-30.588c20.468-10.148,33.281-30.878,33.281-54.456c0-33.844-26.902-61.614-59.878-61.614
				c-14.093,0-28.175,5.72-39.017,15.507C314.352,8.542,285.679-1,255-1c-30.656,0-59.308,9.527-83.288,25.926
				c-10.674-9.79-24.234-15.513-39.071-15.513c-32.976,0-59.878,27.769-59.878,61.614c0,23.849,13.114,44.777,33.327,54.794
				c-1.932,10.053-2.954,20.455-2.954,31.117c0,40.013,14.604,77.718,40.911,106.613c-0.041,0.043-0.083,0.083-0.125,0.126
				c-11.669,11.669-18.434,30.313-18.464,49.677c-10.909,8.805-17.983,22.243-17.983,37.102c0,15.019,7.229,28.583,18.337,37.382
				c-21.065,10.652-35.693,32.421-35.693,58.076c0,36.447,29.505,65.085,65.085,65.085c17.225,0,33.013-6.928,44.732-18.1
				c17.627,6.497,35.98,9.422,55.064,9.422s37.437-2.926,55.064-9.422c11.719,11.172,27.507,18.1,44.732,18.1
				c35.58,0,65.085-29.505,65.085-65.085C419.881,420.823,405.197,398.768,384.065,387.937z M354.797,380.831
				c-10.962,0-20.767-6.141-26.113-15.1c-3.012-6.153-3.958-13.313-2.525-20.48c2.603-10.414,10.414-18.224,20.827-21.695
				c11.281-2.603,19.959,0,25.166,3.471c0.793,0.264,1.668,0.528,2.573,0.719c6.36,5.611,10.444,13.776,10.444,22.712
				C385.169,366.946,371.285,380.831,354.797,380.831z M377.359,25.902c23.43,0,42.522,19.959,42.522,44.258
				c0,15.62-7.81,29.505-19.959,37.315c-8.678-27.769-25.166-52.936-47.729-72.027C360.003,30.241,368.681,26.769,377.359,25.902z
				 M110.078,108.342c-12.149-7.81-19.959-21.695-19.959-37.315c0-24.298,19.091-44.258,42.522-44.258
				c8.529,0,17.055,3.359,24.76,9.241c-9.442,8.246-17.912,17.665-25.197,28.051C122.51,77.55,115.022,92.521,110.078,108.342z
				 M255,16.356c26.154,0,50.667,7.862,71.382,21.445l-0.222,0.25l7.81,5.207c1.396,1.024,2.766,2.078,4.117,3.152
				c31.104,25.576,51.054,65.169,50.554,109.662c0,35.58-12.149,69.424-35.58,94.59c-13.885-11.281-29.505-17.356-45.125-17.356
				c-20.827,0-39.919,12.149-52.936,32.108c-13.017-19.959-32.976-32.108-53.803-32.108c-15.62,0-30.373,6.075-45.125,16.488
				c-23.43-25.166-35.58-58.142-35.58-93.722C120.492,78.837,181.237,16.356,255,16.356z M156.071,274.959
				c12.809-13.563,25.619-21.229,38.997-23.015c0.155-0.02,0.308-0.045,0.463-0.064c0.744-0.092,1.491-0.157,2.239-0.212
				c0.21-0.015,0.419-0.039,0.63-0.052c0.929-0.056,1.861-0.088,2.797-0.088c23.431,0,39.051,19.959,45.993,37.315
				c0.868,2.603,4.339,5.207,7.81,5.207s6.942-2.603,7.81-5.207c7.81-18.224,22.563-37.315,45.125-37.315
				c15.62,0,30.373,6.942,45.125,22.563c6.875,6.875,11.193,18.006,12.962,30.02c-3.61-0.896-7.369-1.383-11.226-1.383
				c-26.034,0-47.729,21.695-47.729,47.729c0,13.451,5.801,25.735,14.991,34.476c-19.79,19.831-45.75,46.638-60.984,62.718
				c-1.685,1.685-3.984,2.545-6.3,2.594c-2.527-0.049-5.031-0.909-6.717-2.594c-7.419-7.831-17.384-18.012-27.94-28.775
				c-10.913-11.355-22.435-23.33-32.62-33.52c2.943-2.73,5.544-5.821,7.738-9.194c0.225-0.338,0.445-0.679,0.661-1.023
				c0.062-0.1,0.12-0.202,0.181-0.303c1.147-1.864,2.146-3.805,3-5.81c0.054-0.124,0.104-0.249,0.157-0.374
				c0.232-0.56,0.466-1.119,0.675-1.688c1.949-5.163,3.024-10.727,3.024-16.507c0-7.988-2.05-15.564-5.634-22.234
				c-5.816-11.451-16.413-20.426-29.078-23.759c-0.48-0.096-0.96-0.185-1.44-0.27c-3.717-0.953-7.595-1.466-11.577-1.466
				c-4.153,0-8.193,0.557-12.054,1.591C144.227,292.559,149.323,281.708,156.071,274.959z M124.831,350.458
				c0-9.049,4.187-17.307,10.686-22.923c1.427-0.139,2.843-0.56,4.066-1.376c7.81-4.339,16.488-6.075,25.166-3.471
				c4.592,1.148,8.676,3.48,12.033,6.619c5.408,5.513,8.794,13.013,8.794,21.151c0,16.488-13.885,30.373-30.373,30.373
				C138.715,380.831,124.831,366.946,124.831,350.458z M107.475,445.915c0-26.034,21.695-47.729,47.729-47.729
				c10.576,0,20.436,3.581,28.417,9.578c1.228,0.923,2.411,1.903,3.546,2.935c1.135,1.033,2.22,2.119,3.253,3.253
				c3.615,3.971,6.581,8.539,8.717,13.522c0.915,2.136,1.678,4.347,2.274,6.621s1.025,4.61,1.273,6.993
				c0.165,1.589,0.25,3.199,0.25,4.826c0,26.034-21.695,47.729-47.729,47.729C129.169,493.644,107.475,471.949,107.475,445.915z
				 M211.61,478.892c1.177-2.353,2.258-4.752,3.227-7.173c3.494-7.938,5.451-16.667,5.451-25.803
				c5.7,5.7,10.624,10.624,14.753,14.753c5.315,5.315,12.439,7.911,19.525,7.8c0.145,0.002,0.289,0.01,0.434,0.01
				c6.942,0,13.885-3.471,19.092-6.942c4.474-4.698,9.817-10.265,15.62-16.291c0,0.513,0,1.026,0,1.539
				c0,11.281,2.603,22.563,8.678,32.109C269.753,487.569,240.247,487.569,211.61,478.892z M354.797,493.644
				c-21.004,0-39.176-14.125-45.417-33.253c-1.055-3.309-1.773-6.723-2.103-10.169c-0.016-0.175-0.027-0.352-0.041-0.528
				c-0.044-0.521-0.085-1.041-0.111-1.563c-0.035-0.735-0.058-1.473-0.058-2.215c0-1.627,0.085-3.237,0.25-4.826
				c0.248-2.383,0.677-4.719,1.273-6.993c0.596-2.274,1.359-4.486,2.274-6.621c1.674-3.906,3.869-7.549,6.476-10.857
				c2.308-2.39,4.596-4.76,6.848-7.094c0.715-0.605,1.442-1.196,2.191-1.759c7.98-5.997,17.841-9.578,28.417-9.578
				c26.034,0,47.729,21.695,47.729,47.729C402.525,471.949,380.831,493.644,354.797,493.644z"/>
			<path d="M196.858,287.108c1.736-0.868,2.603-1.736,4.339-1.736c4.339,0,7.81,4.339,11.281,12.149
				c0.868,3.471,4.339,5.207,7.81,5.207c0.868,0,1.736,0,2.603-0.868c4.339-1.736,6.942-6.942,5.207-11.281
				c-6.942-18.224-18.224-22.563-26.902-22.563c-3.471,0-8.678,2.603-13.017,5.207c-4.339,1.736-5.207,7.81-2.603,11.281
				C188.18,287.976,193.386,289.712,196.858,287.108z"/>
			<path d="M226.363,174.295c2.524,8.413,10.761,15.175,19.959,15.581v8.717c0,5.207-3.471,8.678-8.678,8.678
				s-8.678-3.471-8.678-8.678s-3.471-8.678-8.678-8.678s-8.678,3.471-8.678,8.678c0,14.753,11.281,26.034,26.034,26.034
				c6.769,0,12.803-2.38,17.356-6.376c4.553,3.996,10.587,6.376,17.356,6.376c14.753,0,26.034-11.281,26.034-26.034
				c0-5.207-3.471-8.678-8.678-8.678s-8.678,3.471-8.678,8.678s-3.471,8.678-8.678,8.678s-8.678-3.471-8.678-8.678v-8.717
				c9.197-0.407,17.382-7.194,18.224-16.449l2.603-9.546c1.736-6.075,0.868-13.017-3.471-18.224
				c-3.471-5.207-9.546-7.81-16.488-7.81h-19.959c-6.075,0-13.017,2.603-16.488,7.81c-3.471,5.207-5.207,12.149-3.471,18.224
				L226.363,174.295z M241.983,156.939c0-0.868,0.868-1.736,2.603-1.736h20.827c0.868,0,2.603,0.868,2.603,1.736
				c0.868,0.868,0.868,1.736,0.868,3.471l-2.603,9.546c0,1.736-1.736,2.603-3.471,2.603h-15.62c-1.736,0-3.471-0.868-3.471-2.603
				l-2.603-9.546C241.115,158.675,241.983,157.807,241.983,156.939z"/>
			<path d="M298.39,129.169c5.207,0,8.678-3.471,8.678-8.678c0-9.546,7.81-17.356,17.356-17.356c9.546,0,17.356,7.81,17.356,17.356
				c0,5.207,3.471,8.678,8.678,8.678s8.678-3.471,8.678-8.678c0-19.091-15.62-34.712-34.712-34.712
				c-19.091,0-34.712,15.62-34.712,34.712C289.712,125.698,293.183,129.169,298.39,129.169z"/>
			<path d="M168.22,120.492c0-9.546,7.81-17.356,17.356-17.356c9.546,0,17.356,7.81,17.356,17.356c0,5.207,3.471,8.678,8.678,8.678
				s8.678-3.471,8.678-8.678c0-19.091-15.62-34.712-34.712-34.712c-19.092,0-34.712,15.62-34.712,34.712
				c0,5.207,3.471,8.678,8.678,8.678S168.22,125.698,168.22,120.492z"/>
			<path d="M354.797,415.542c-16.488,0-30.373,13.885-30.373,30.373c0,5.207,3.471,8.678,8.678,8.678s8.678-3.471,8.678-8.678
				c0-6.942,6.075-13.017,13.017-13.017c5.207,0,8.678-3.471,8.678-8.678S360.003,415.542,354.797,415.542z"/>
			<path d="M155.203,411.203c-16.488,0-30.373,13.885-30.373,30.373c0,5.207,3.471,8.678,8.678,8.678s8.678-3.471,8.678-8.678
				c0-6.942,6.075-13.017,13.017-13.017c5.207,0,8.678-3.471,8.678-8.678S160.41,411.203,155.203,411.203z"/>
		</g>
	</g>
</g>
</svg>